// Generation Options: --volume 10

<group>
trigger=attack
ampeg_attack=0.004000
ampeg_release=0.100000

<region>
sample=Harmonica-Hohner-Special20-F/Sustains/HandVib/Hohner-Special20-F_HandVib_F3.wav
pitch_keycenter=65
lokey=65
hikey=67
volume=6.983731

<region>
sample=Harmonica-Hohner-Special20-F/Sustains/HandVib/Hohner-Special20-F_HandVib_A3.wav
pitch_keycenter=69
lokey=68
hikey=70
volume=11.233406
ampeg_attack=0.1

<region>
sample=Harmonica-Hohner-Special20-F/Sustains/HandVib/Hohner-Special20-F_HandVib_C4.wav
pitch_keycenter=72
lokey=71
hikey=74
volume=13.674840
ampeg_attack=0.1

<region>
sample=Harmonica-Hohner-Special20-F/Sustains/HandVib/Hohner-Special20-F_HandVib_F4.wav
pitch_keycenter=77
lokey=75
hikey=79
volume=7.858103

<region>
sample=Harmonica-Hohner-Special20-F/Sustains/HandVib/Hohner-Special20-F_HandVib_A4.wav
pitch_keycenter=81
lokey=80
hikey=82
volume=14.108568

<region>
sample=Harmonica-Hohner-Special20-F/Sustains/HandVib/Hohner-Special20-F_HandVib_C5.wav
pitch_keycenter=84
lokey=83
hikey=86
volume=16.506399

<region>
sample=Harmonica-Hohner-Special20-F/Sustains/HandVib/Hohner-Special20-F_HandVib_F5.wav
pitch_keycenter=89
lokey=87
hikey=91
volume=8.598776

<region>
sample=Harmonica-Hohner-Special20-F/Sustains/HandVib/Hohner-Special20-F_HandVib_A5.wav
pitch_keycenter=93
lokey=92
hikey=94
volume=13.976601

<region>
sample=Harmonica-Hohner-Special20-F/Sustains/HandVib/Hohner-Special20-F_HandVib_C6.wav
pitch_keycenter=96
lokey=95
hikey=98
offset=782
volume=4.614296

<region>
sample=Harmonica-Hohner-Special20-F/Sustains/HandVib/Hohner-Special20-F_HandVib_F6.wav
pitch_keycenter=101
lokey=99
hikey=102
volume=12.859392

<group>
trigger=release
ampeg_attack=0.100000
ampeg_sustain=0
ampeg_decay=0.5

<region>
sample=Harmonica-Hohner-Special20-F/Releases/HandVib/Hohner-Special20-F_HandVib_rel_F3.wav
pitch_keycenter=65
lokey=65
hikey=67
tune=-5
volume=1.906180

<region>
sample=Harmonica-Hohner-Special20-F/Releases/HandVib/Hohner-Special20-F_HandVib_rel_A3.wav
pitch_keycenter=69
lokey=68
hikey=70
tune=-3
volume=-1.586904

<region>
sample=Harmonica-Hohner-Special20-F/Releases/HandVib/Hohner-Special20-F_HandVib_rel_C4.wav
pitch_keycenter=72
lokey=71
hikey=74
tune=-3
volume=-1.207789

<region>
sample=Harmonica-Hohner-Special20-F/Releases/HandVib/Hohner-Special20-F_HandVib_rel_F4.wav
pitch_keycenter=77
lokey=75
hikey=79
tune=-4
volume=0.620358

<region>
sample=Harmonica-Hohner-Special20-F/Releases/HandVib/Hohner-Special20-F_HandVib_rel_A4.wav
pitch_keycenter=81
lokey=80
hikey=82
tune=-1
volume=1.466778

<region>
sample=Harmonica-Hohner-Special20-F/Releases/HandVib/Hohner-Special20-F_HandVib_rel_C5.wav
pitch_keycenter=84
lokey=83
hikey=86
tune=-7
volume=-1.970316

<region>
sample=Harmonica-Hohner-Special20-F/Releases/HandVib/Hohner-Special20-F_HandVib_rel_F5.wav
pitch_keycenter=89
lokey=87
hikey=91
tune=-4
volume=1.675161

<region>
sample=Harmonica-Hohner-Special20-F/Releases/HandVib/Hohner-Special20-F_HandVib_rel_A5.wav
pitch_keycenter=93
lokey=92
hikey=94
volume=-0.005698

<region>
sample=Harmonica-Hohner-Special20-F/Releases/HandVib/Hohner-Special20-F_HandVib_rel_C6.wav
pitch_keycenter=96
lokey=95
hikey=98
tune=-5
volume=2.884642

<region>
sample=Harmonica-Hohner-Special20-F/Releases/HandVib/Hohner-Special20-F_HandVib_rel_F6.wav
pitch_keycenter=101
lokey=99
hikey=102
tune=-4
volume=-1.529193

